<?xml version="1.0" encoding="utf-8"?>
<!-- Generator: Adobe Illustrator 16.0.4, SVG Export Plug-In . SVG Version: 6.00 Build 0)  -->
<!DOCTYPE svg PUBLIC "-//W3C//DTD SVG 1.1//EN" "http://www.w3.org/Graphics/SVG/1.1/DTD/svg11.dtd">
<svg version="1.1" id="Layer_1" xmlns="http://www.w3.org/2000/svg" xmlns:xlink="http://www.w3.org/1999/xlink" x="0px" y="0px"
	 width="612px" height="792px" viewBox="0 0 612 792" enable-background="new 0 0 612 792" xml:space="preserve">
<path fill="none" stroke="#B9529F" stroke-miterlimit="10" d="M67.258,149c-2.615,0-6.505-0.462-10.191-2.658l-46.181-27.56
	C5.066,115.312,1,108.152,1,101.373V48.331c0-6.802,4.093-13.96,9.951-17.41l46.38-27.313C60.981,1.454,64.845,1,67.442,1
	c2.586,0,6.431,0.45,10.082,2.59l46.774,27.396c5.878,3.448,9.979,10.608,9.979,17.413v53.096c0,6.806-4.102,13.964-9.974,17.41
	l-47.021,27.517C74.423,148.104,70.95,149,67.258,149L67.258,149z"/>
</svg>
